<svg width="21" height="15" viewBox="0 0 21 15" fill="none" xmlns="http://www.w3.org/2000/svg">
<path d="M10.9394 14.9485H10.9194C10.8574 14.9485 4.65435 14.9365 3.08935 14.5115C2.22878 14.2797 1.5567 13.6072 1.32535 12.7465C1.04393 11.1589 0.908035 9.54887 0.919354 7.93652C0.912083 6.32154 1.05166 4.70923 1.33635 3.11952C1.57406 2.25804 2.24318 1.58247 3.10235 1.33652C4.62435 0.936523 10.6564 0.936523 10.9124 0.936523H10.9334C10.9964 0.936523 17.2154 0.948523 18.7644 1.37352C19.6231 1.60653 20.2938 2.27762 20.5264 3.13652C20.8167 4.73006 20.953 6.34786 20.9334 7.96752C20.9404 9.58055 20.8005 11.1909 20.5154 12.7785C20.281 13.6382 19.6085 14.3091 18.7484 14.5415C17.2284 14.9445 11.1954 14.9485 10.9394 14.9485ZM8.93935 4.94152L8.93435 10.9415L14.1464 7.94152L8.93935 4.94152Z" fill="white"/>
</svg>
