<svg width="21" height="18" viewBox="0 0 21 18" fill="none" xmlns="http://www.w3.org/2000/svg">
<path d="M18.4547 3.12598C19.3511 2.59007 20.0219 1.74621 20.3417 0.751977C19.4994 1.25178 18.5777 1.60385 17.6167 1.79298C16.2843 0.383504 14.1732 0.0405029 12.4631 0.955633C10.753 1.87076 9.8672 3.81747 10.3007 5.70798C6.85031 5.53475 3.63567 3.90489 1.4567 1.22398C0.319542 3.1854 0.900655 5.69276 2.7847 6.95398C2.10341 6.93207 1.43723 6.74761 0.841702 6.41598C0.841702 6.43398 0.841702 6.45198 0.841702 6.46998C0.842096 8.51313 2.28207 10.2731 4.2847 10.678C3.65277 10.8499 2.98991 10.8752 2.3467 10.752C2.9099 12.4992 4.52025 13.6963 6.3557 13.732C4.83553 14.9251 2.95818 15.5721 1.0257 15.569C0.683173 15.5695 0.340912 15.5498 0.000701904 15.51C1.96309 16.771 4.24707 17.4403 6.5797 17.438C9.82495 17.4603 12.9437 16.1809 15.2384 13.886C17.5331 11.5911 18.8123 8.47222 18.7897 5.22698C18.7897 5.04098 18.7854 4.85598 18.7767 4.67198C19.6172 4.06458 20.3425 3.31213 20.9187 2.44998C20.1357 2.79704 19.3052 3.0249 18.4547 3.12598Z" fill="white"/>
</svg>
