<svg width="19" height="19" viewBox="0 0 19 19" fill="none" xmlns="http://www.w3.org/2000/svg">
<path d="M9.93521 18.9606C7.47521 18.9606 7.18521 18.9476 6.22521 18.9056C5.47658 18.8809 4.73764 18.7288 4.04021 18.4556C2.83352 17.986 1.87935 17.0314 1.41021 15.8246C1.14752 15.1246 1.00583 14.385 0.991211 13.6376C0.935211 12.6796 0.935211 12.3656 0.935211 9.92456C0.935211 7.45756 0.948211 7.16956 0.991211 6.21456C1.00615 5.46808 1.14783 4.72957 1.41021 4.03056C1.87884 2.82209 2.83456 1.86673 4.04321 1.39856C4.74185 1.13476 5.48056 0.992705 6.22721 0.978561C7.18221 0.924561 7.49621 0.924561 9.93521 0.924561C12.4152 0.924561 12.7002 0.937561 13.6452 0.978561C14.3938 0.992827 15.1345 1.13487 15.8352 1.39856C17.0435 1.86726 17.999 2.82244 18.4682 4.03056C18.7353 4.73975 18.8778 5.48981 18.8892 6.24756C18.9452 7.20556 18.9452 7.51856 18.9452 9.95856C18.9452 12.3986 18.9312 12.7186 18.8892 13.6656C18.8743 14.4138 18.7323 15.154 18.4692 15.8546C17.9989 17.0623 17.0433 18.0171 15.8352 18.4866C15.1355 18.7488 14.3963 18.8904 13.6492 18.9056C12.6942 18.9606 12.3812 18.9606 9.93521 18.9606ZM9.90121 2.50756C7.45521 2.50756 7.20121 2.51956 6.24621 2.56256C5.6762 2.57011 5.11169 2.6753 4.57721 2.87356C3.78796 3.17557 3.16344 3.79755 2.85821 4.58556C2.65842 5.12586 2.55322 5.69654 2.54721 6.27256C2.49421 7.24156 2.49421 7.49556 2.49421 9.92456C2.49421 12.3246 2.50321 12.6156 2.54721 13.5786C2.55616 14.1488 2.66131 14.7134 2.85821 15.2486C3.16389 16.036 3.78831 16.6576 4.57721 16.9596C5.11133 17.1591 5.67606 17.2644 6.24621 17.2706C7.21421 17.3266 7.46921 17.3266 9.90121 17.3266C12.3542 17.3266 12.6082 17.3146 13.5552 17.2706C14.1256 17.2636 14.6905 17.1584 15.2252 16.9596C16.0097 16.6549 16.6301 16.0349 16.9352 15.2506C17.1346 14.7098 17.2398 14.1389 17.2462 13.5626H17.2572C17.3002 12.6066 17.3002 12.3516 17.3002 9.90856C17.3002 7.46556 17.2892 7.20856 17.2462 6.25356C17.2372 5.68401 17.1321 5.12007 16.9352 4.58556C16.6308 3.80013 16.0103 3.17885 15.2252 2.87356C14.6907 2.6743 14.1257 2.56908 13.5552 2.56256C12.5882 2.50756 12.3352 2.50756 9.90121 2.50756ZM9.93521 14.5436C8.0652 14.5448 6.37863 13.4193 5.66207 11.692C4.94552 9.96474 5.34012 7.97589 6.66184 6.65302C7.98357 5.33015 9.97207 4.93383 11.7 5.64889C13.4279 6.36395 14.5548 8.04955 14.5552 9.91956C14.5525 12.4706 12.4863 14.5386 9.93521 14.5436ZM9.93521 6.91756C8.27836 6.91756 6.93521 8.26071 6.93521 9.91756C6.93521 11.5744 8.27836 12.9176 9.93521 12.9176C11.5921 12.9176 12.9352 11.5744 12.9352 9.91756C12.9314 8.2623 11.5905 6.92141 9.93521 6.91756ZM14.7352 6.20456C14.1406 6.20235 13.6601 5.71915 13.6612 5.12457C13.6623 4.52999 14.1446 4.04857 14.7392 4.04857C15.3338 4.04857 15.8161 4.52998 15.8172 5.12456C15.8175 5.41142 15.7035 5.68658 15.5005 5.88924C15.2974 6.09189 15.0221 6.20536 14.7352 6.20456Z" fill="white"/>
</svg>
