<svg width="20" height="20" viewBox="0 0 20 20" fill="none" xmlns="http://www.w3.org/2000/svg">
<path d="M0 10.0023C0.00116354 14.9217 3.5784 19.1104 8.437 19.8814V12.8924H5.9V10.0023H8.44V7.80235C8.32645 6.75989 8.68252 5.72094 9.41164 4.96728C10.1408 4.21362 11.1674 3.82336 12.213 3.90235C12.9635 3.91447 13.7122 3.98132 14.453 4.10235V6.56135H13.189C12.7538 6.50435 12.3164 6.64807 11.9998 6.95202C11.6832 7.25596 11.5218 7.68724 11.561 8.12435V10.0023H14.332L13.889 12.8933H11.561V19.8814C16.8155 19.0509 20.5001 14.2521 19.9455 8.96142C19.3909 3.67072 14.7913 -0.259721 9.47882 0.0175279C4.16636 0.294777 0.000844477 4.68266 0 10.0023Z" fill="white"/>
</svg>
