<svg width="461" height="410" viewBox="0 0 461 410" fill="none" xmlns="http://www.w3.org/2000/svg">
<path d="M361.793 188.634C359.257 211.258 354.43 225.684 348.167 241.92C348.167 241.92 402.375 273.888 410.797 315.073C417.456 347.793 378.908 373.099 312.19 344.985C242.371 315.602 195.967 264.983 183.985 207.53C145.349 209.854 132.415 222.576 132.415 222.576C132.415 222.576 164.125 335.911 295.435 395.513C423.472 453.629 558.335 327.267 361.793 188.634ZM256.317 48.8432C305.924 39.1069 334.69 214.505 246.93 289.551C246.93 289.551 264.302 310.997 289.387 321.609C289.387 321.609 364.211 252.354 352.767 122.624C341.315 -7.12027 258.991 -8.52411 224.957 6.61343C190.881 21.739 141.139 68.2766 129.214 148.324C149.425 141.129 159.081 139.511 186.579 137.704C186.579 137.704 202.501 59.419 256.317 48.8432ZM56.3088 326.391C21.0107 263.939 134.031 157.666 284.603 210.516C284.603 210.516 292.583 189.723 294.26 159.372C294.26 159.372 150.258 117.659 54.6483 196.785C-9.86861 250.163 -18.3789 332.443 35.0917 380.69C78.5098 419.943 155.174 417.576 227.931 370.247C211.403 358.023 201.841 350.387 187.681 334.509C187.681 334.509 91.5775 388.933 56.3088 326.391Z" fill="#E55645"/>
</svg>
