<svg width="18" height="21" viewBox="0 0 18 21" fill="none" xmlns="http://www.w3.org/2000/svg">
<path d="M13.7002 4.75944C13.0271 4.00302 12.6225 3.01672 12.6225 1.93848H11.7791M13.7002 4.75944C14.3136 5.44904 15.1442 5.95057 16.0899 6.14695C16.3838 6.20964 16.6905 6.24311 17.01 6.24311V9.33567C15.3743 9.33567 13.8577 8.82169 12.6223 7.95238V14.2421C12.6223 17.3849 10.0153 19.9385 6.81621 19.9385C5.14206 19.9385 3.62981 19.2363 2.56911 18.1205C1.60213 17.1008 1.01001 15.7383 1.01001 14.2421C1.01001 11.1453 3.54037 8.62106 6.67562 8.55419M13.7002 4.75944C13.6839 4.74896 13.6675 4.73839 13.6513 4.7277M4.66929 15.755C4.35406 15.3288 4.16663 14.8064 4.16663 14.238C4.16663 12.8045 5.35512 11.6385 6.81629 11.6385C7.08891 11.6385 7.35299 11.6844 7.60006 11.7596V8.6002C7.34446 8.56673 7.08464 8.54582 6.81629 8.54582C6.7694 8.54582 6.39195 8.57043 6.34509 8.57043M11.7746 1.93848H9.4658L9.46158 14.3382C9.41044 15.7258 8.24321 16.8417 6.81621 16.8417C5.93014 16.8417 5.15058 16.4112 4.66496 15.7592" stroke="#E55645" stroke-width="2" stroke-linejoin="round"/>
</svg>
