<svg width="21" height="15" viewBox="0 0 21 15" fill="none" xmlns="http://www.w3.org/2000/svg">
<path d="M10.9394 14.9446H10.9194C10.8574 14.9446 4.65435 14.9326 3.08935 14.5076C2.22878 14.2758 1.5567 13.6033 1.32535 12.7426C1.04393 11.155 0.908035 9.54496 0.919354 7.93262C0.912083 6.31763 1.05166 4.70533 1.33635 3.11562C1.57406 2.25413 2.24318 1.57857 3.10235 1.33262C4.62435 0.932617 10.6564 0.932617 10.9124 0.932617H10.9334C10.9964 0.932617 17.2154 0.944617 18.7644 1.36962C19.6231 1.60263 20.2938 2.27371 20.5264 3.13262C20.8167 4.72616 20.953 6.34395 20.9334 7.96362C20.9404 9.57665 20.8005 11.187 20.5154 12.7746C20.281 13.6343 19.6085 14.3052 18.7484 14.5376C17.2284 14.9406 11.1954 14.9446 10.9394 14.9446ZM8.93935 4.93762L8.93435 10.9376L14.1464 7.93762L8.93935 4.93762Z" fill="#E55645"/>
</svg>
