<svg width="21" height="18" viewBox="0 0 21 18" fill="none" xmlns="http://www.w3.org/2000/svg">
<path d="M18.4547 3.12256C19.3511 2.58665 20.0219 1.7428 20.3417 0.748559C19.4994 1.24836 18.5777 1.60044 17.6167 1.78956C16.2843 0.380086 14.1732 0.0370849 12.4631 0.952215C10.753 1.86734 9.8672 3.81405 10.3007 5.70456C6.85031 5.53133 3.63567 3.90148 1.4567 1.22056C0.319542 3.18198 0.900655 5.68934 2.7847 6.95056C2.10341 6.92866 1.43723 6.7442 0.841702 6.41256C0.841702 6.43056 0.841702 6.44856 0.841702 6.46656C0.842096 8.50971 2.28207 10.2696 4.2847 10.6746C3.65277 10.8465 2.98991 10.8718 2.3467 10.7486C2.9099 12.4958 4.52025 13.6928 6.3557 13.7286C4.83553 14.9217 2.95818 15.5687 1.0257 15.5656C0.683173 15.5661 0.340912 15.5464 0.000701904 15.5066C1.96309 16.7676 4.24707 17.4369 6.5797 17.4346C9.82495 17.4568 12.9437 16.1775 15.2384 13.8826C17.5331 11.5877 18.8123 8.46881 18.7897 5.22356C18.7897 5.03756 18.7854 4.85256 18.7767 4.66856C19.6172 4.06116 20.3425 3.30871 20.9187 2.44656C20.1357 2.79362 19.3052 3.02148 18.4547 3.12256Z" fill="#E55645"/>
</svg>
