<svg width="209" height="70" viewBox="0 0 209 70" fill="none" xmlns="http://www.w3.org/2000/svg">
<path d="M38.2399 41.1719C38.7419 42.4095 39.7913 43.3359 41.0291 43.3359H51.5508C52.7901 43.3359 53.655 42.4095 53.097 41.1719L35.7639 2.10287C35.2107 0.864699 34.2177 0 32.9799 0H20.2877C19.0494 0 18.0668 0.93673 17.5033 2.1749L0.175844 41.1719C-0.387576 42.4095 0.477118 43.3359 1.71546 43.3359H11.6184C12.8564 43.3359 13.9215 42.4095 14.413 41.1719L16.5722 35.5983H36.0756L38.2399 41.1719ZM194.85 24.1455C194.85 24.1455 203.213 22.2876 203.213 14.237C203.213 6.50461 196.708 0 183.09 0H160.501C159.262 0 158.33 0.93673 158.33 2.1749V41.1719C158.33 42.4095 159.262 43.3359 160.501 43.3359H169.789C171.023 43.3359 171.949 42.4095 171.949 41.1719V28.4738H179.993C183.408 28.4738 184.584 29.7136 185.567 31.5711L190.833 41.1719C191.513 42.4095 192.379 43.3359 194.85 43.3359H204.45C205.997 43.3359 206.498 42.0981 205.997 41.1719L200.741 31.5711C197.645 26.0032 194.85 24.764 194.85 24.764V24.1455ZM171.949 18.5721V9.90833H183.09C187.118 9.90833 188.975 11.7648 188.975 14.237C188.975 16.7144 187.118 18.5721 183.09 18.5721H171.949ZM138.649 41.1719C139.14 42.4095 140.199 43.3359 141.438 43.3359H151.965C153.203 43.3359 154.068 42.4095 153.505 41.1719L136.171 2.10287C135.613 0.864699 134.63 0 133.392 0H120.696C119.457 0 118.465 0.93673 117.918 2.1749L100.584 41.1719C100.025 42.4095 100.891 43.3359 102.124 43.3359H112.031C113.271 43.3359 114.32 42.4095 114.82 41.1719L116.981 35.5983H136.488L138.649 41.1719ZM126.581 12.9988H127.201L132.154 25.3833H121.314L126.581 12.9988ZM65.2311 2.1749C64.7395 0.93673 63.6849 0 62.4469 0H52.5438C51.3058 0 50.4411 0.93673 50.9943 2.1749L67.7075 41.1719C68.265 42.4095 69.2583 43.3359 70.4963 43.3359L83.1835 43.2746C84.4218 43.2746 85.4148 42.4095 85.9729 41.1719L102.687 2.1749C103.235 0.93673 102.369 0 101.136 0H90.6096C89.3712 0 88.3218 0.93673 87.8306 2.1749L76.9905 30.3319H76.3721L65.2311 2.1749ZM26.1725 12.9988H26.7923L31.7402 25.3833H20.9069L26.1725 12.9988Z" fill="white"/>
<path d="M16.4498 55.6441L13.1024 69.0687H10.6354L8.25634 59.2523L5.85098 69.0687H3.41013L0.129517 55.6441H2.38043L4.69921 65.4504L7.07824 55.6441H9.44308L11.8734 65.5117L14.2186 55.6441H16.4498ZM209 69.0687H206.917V63.2702C206.917 62.7684 206.897 62.3388 206.866 61.9852C206.836 61.6275 206.764 61.3456 206.651 61.1311C206.544 60.9057 206.396 60.7471 206.206 60.6449C206.012 60.5569 205.751 60.5113 205.434 60.5113C205.214 60.5113 204.989 60.5479 204.742 60.629C204.502 60.7117 204.256 60.8295 204.006 60.9725C203.76 61.1204 203.51 61.2944 203.258 61.4847C203.003 61.6732 202.762 61.8672 202.532 62.0729V69.0687H200.449V58.8999H202.532V60.3121C202.752 60.0919 202.997 59.877 203.269 59.6727C203.539 59.4632 203.821 59.2835 204.124 59.1249C204.425 58.9668 204.737 58.8435 205.059 58.7517C205.373 58.6532 205.695 58.6025 206.023 58.6025C206.589 58.6025 207.066 58.6849 207.445 58.8487C207.829 59.0123 208.13 59.2471 208.361 59.555C208.592 59.8718 208.756 60.2557 208.852 60.7169C208.949 61.1662 209 61.6888 209 62.2772V69.0687ZM197.896 64.0066C197.896 64.8307 197.808 65.5775 197.63 66.2377C197.455 66.8929 197.174 67.4506 196.795 67.9171C196.422 68.3825 195.941 68.7413 195.352 68.9915C194.763 69.2366 194.057 69.3596 193.238 69.3596C192.414 69.3596 191.703 69.2366 191.104 68.9915C190.511 68.7361 190.019 68.3721 189.64 67.9067C189.267 67.4402 188.996 66.8836 188.816 66.2285C188.632 65.5682 188.54 64.8255 188.54 64.0066C188.54 63.168 188.632 62.42 188.816 61.7556C189.002 61.0902 189.278 60.5216 189.651 60.0567C190.03 59.5851 190.516 59.2274 191.104 58.9756C191.703 58.7253 192.414 58.6025 193.238 58.6025C194.057 58.6025 194.763 58.7253 195.352 58.9756C195.941 59.2274 196.422 59.5851 196.795 60.0567C197.174 60.5216 197.455 61.0902 197.63 61.7556C197.808 62.42 197.896 63.168 197.896 64.0066ZM195.735 64.0066C195.735 62.7949 195.541 61.8987 195.152 61.3157C194.763 60.7259 194.124 60.4299 193.238 60.4299C192.353 60.4299 191.708 60.7259 191.303 61.3157C190.894 61.8987 190.695 62.7949 190.695 64.0066C190.695 65.1789 190.894 66.0648 191.294 66.6581C191.692 67.2569 192.342 67.5531 193.238 67.5531C194.108 67.5531 194.742 67.2569 195.142 66.6581C195.536 66.0648 195.735 65.1789 195.735 64.0066ZM186.212 56.2231C186.212 56.653 186.11 56.9449 185.91 57.1087C185.705 57.2725 185.388 57.3539 184.953 57.3539C184.492 57.3539 184.169 57.2569 183.99 57.0616C183.817 56.8729 183.724 56.5914 183.724 56.2231C183.724 55.8235 183.822 55.5326 184.011 55.3532C184.196 55.1738 184.508 55.0874 184.953 55.0874C185.408 55.0874 185.726 55.1738 185.92 55.3532C186.115 55.5274 186.212 55.8183 186.212 56.2231ZM186.017 69.0687H183.934V58.8999H186.017V69.0687ZM181.734 67.3594L182.164 69.0687C181.877 69.1553 181.549 69.2273 181.181 69.2837C180.822 69.3346 180.475 69.3596 180.142 69.3596C179.584 69.3596 179.114 69.2983 178.725 69.1657C178.331 69.0323 178.013 68.8329 177.763 68.5567C177.512 68.2804 177.328 67.9316 177.21 67.5071C177.103 67.0775 177.047 66.5757 177.047 65.9927V60.5989H175.68V58.8999H177.047V56.07H179.128V58.8999H181.586V60.5989H179.128V65.6703C179.128 66.0332 179.149 66.3411 179.185 66.5913C179.232 66.8417 179.303 67.0422 179.395 67.1901C179.493 67.3487 179.621 67.4615 179.78 67.5336C179.933 67.604 180.127 67.6409 180.357 67.6409C180.588 67.6409 180.822 67.6144 181.074 67.5531C181.324 67.5019 181.544 67.435 181.734 67.3594ZM174.964 69.0687H172.517L169.538 64.6773L168.515 65.8029V69.0687H166.432V54.6314H168.515V63.2702L172.281 58.8999H174.748L170.808 63.2702L174.964 69.0687ZM163.965 64.4218H157.287C157.293 64.9327 157.344 65.3836 157.441 65.778C157.543 66.1617 157.696 66.4892 157.916 66.7499C158.126 67.0107 158.397 67.2111 158.74 67.3486C159.078 67.4875 159.498 67.5531 159.999 67.5531C160.459 67.5531 160.869 67.4771 161.227 67.3185C161.586 67.1547 161.918 66.8836 162.225 66.5047L163.817 67.5952C163.627 67.8807 163.412 68.1373 163.172 68.3628C162.937 68.5775 162.655 68.7608 162.338 68.909C162.021 69.0531 161.662 69.1657 161.253 69.2418C160.853 69.3243 160.399 69.3596 159.881 69.3596C158.254 69.3596 157.057 68.9142 156.283 68.0248C155.516 67.1287 155.132 65.8082 155.132 64.0682C155.132 63.239 155.215 62.4922 155.379 61.8266C155.542 61.1571 155.808 60.5833 156.176 60.1076C156.534 59.627 157.011 59.2575 157.599 58.9967C158.187 58.7361 158.909 58.6025 159.763 58.6025C160.515 58.6025 161.161 58.7149 161.699 58.9455C162.225 59.1709 162.66 59.4881 162.993 59.9018C163.336 60.3173 163.581 60.8191 163.73 61.3917C163.889 61.9745 163.965 62.6207 163.965 63.3318V64.4218ZM157.312 62.8865H161.903C161.903 62.0413 161.729 61.3969 161.371 60.9514C161.017 60.5112 160.459 60.291 159.693 60.291C159.309 60.291 158.976 60.3474 158.7 60.46C158.423 60.5729 158.198 60.7367 158.013 60.9618C157.83 61.182 157.68 61.4582 157.568 61.7754C157.46 62.0978 157.374 62.4673 157.312 62.8865ZM154.994 54.6525L154.513 56.4629C154.314 56.3763 154.083 56.3043 153.838 56.2442C153.591 56.1918 153.352 56.167 153.11 56.167C152.839 56.167 152.614 56.1969 152.431 56.2638C152.256 56.3256 152.108 56.4224 152 56.5718C151.892 56.7091 151.821 56.8889 151.781 57.1087C151.739 57.3342 151.714 57.6001 151.714 57.9068V58.8999H153.884V60.5989H151.714V69.0687H149.631V60.5989H148.244V58.8999H149.631V57.9068C149.631 57.3186 149.693 56.7957 149.816 56.3412C149.943 55.8903 150.138 55.517 150.409 55.2247C150.68 54.9288 151.038 54.7034 151.467 54.5541C151.908 54.4059 152.44 54.3301 153.07 54.3301C153.428 54.3301 153.776 54.3602 154.114 54.427C154.441 54.4887 154.733 54.5593 154.994 54.6525ZM147.537 58.9455L147.123 60.941C147.021 60.9005 146.887 60.8648 146.724 60.8336C146.56 60.8035 146.386 60.7824 146.213 60.7824C145.931 60.7824 145.66 60.8243 145.403 60.9005C145.159 60.9829 144.917 61.0851 144.687 61.2172C144.457 61.3456 144.237 61.5042 144.022 61.6888C143.811 61.8724 143.602 62.0625 143.392 62.2564V69.0687H141.309V58.8999H143.392V60.4496C143.612 60.2153 143.838 59.9951 144.068 59.7908C144.303 59.5799 144.549 59.4016 144.804 59.243C145.061 59.0885 145.327 58.972 145.604 58.8786C145.88 58.7869 146.171 58.7413 146.488 58.7413C146.724 58.7413 146.923 58.7609 147.097 58.7978C147.272 58.8329 147.419 58.8787 147.537 58.9455ZM138.853 64.4218H132.159C132.17 64.9327 132.221 65.3836 132.318 65.778C132.42 66.1617 132.578 66.4892 132.788 66.7499C133.003 67.0107 133.279 67.2111 133.612 67.3486C133.955 67.4875 134.374 67.5531 134.871 67.5531C135.337 67.5531 135.751 67.4771 136.111 67.3185C136.468 67.1547 136.801 66.8836 137.102 66.5047L138.705 67.5952C138.511 67.8807 138.29 68.1373 138.055 68.3628C137.814 68.5775 137.532 68.7608 137.22 68.909C136.908 69.0531 136.545 69.1657 136.141 69.2418C135.732 69.3243 135.271 69.3596 134.753 69.3596C133.137 69.3596 131.939 68.9142 131.166 68.0248C130.393 67.1287 130.009 65.8082 130.009 64.0682C130.009 63.239 130.092 62.4922 130.256 61.8266C130.419 61.1571 130.685 60.5833 131.048 60.1076C131.418 59.627 131.893 59.2575 132.487 58.9967C133.07 58.7361 133.786 58.6025 134.637 58.6025C135.399 58.6025 136.044 58.7149 136.57 58.9455C137.107 59.1709 137.543 59.4881 137.881 59.9018C138.213 60.3173 138.459 60.8191 138.618 61.3917C138.771 61.9745 138.853 62.6207 138.853 63.3318V64.4218ZM132.2 62.8865H136.78C136.78 62.0413 136.602 61.3969 136.248 60.9514C135.895 60.5112 135.337 60.291 134.58 60.291C134.186 60.291 133.848 60.3474 133.577 60.46C133.306 60.5729 133.075 60.7367 132.886 60.9618C132.701 61.182 132.559 61.4582 132.457 61.7754C132.344 62.0978 132.256 62.4673 132.2 62.8865ZM128.199 60.0464C128.199 60.8596 128.106 61.5551 127.917 62.1397C127.732 62.7227 127.445 63.2033 127.061 63.5874C126.668 63.9661 126.167 64.2476 125.558 64.4415C124.948 64.6209 124.216 64.7127 123.357 64.7127H121.187V69.0687H118.935V55.6441H123.434C124.201 55.6441 124.881 55.7265 125.47 55.8903C126.059 56.0489 126.556 56.2991 126.965 56.6475C127.364 56.9962 127.671 57.4507 127.885 58.0141C128.095 58.5723 128.199 59.2471 128.199 60.0464ZM125.844 60.0656C125.844 59.5799 125.778 59.1813 125.644 58.8682C125.506 58.562 125.316 58.3168 125.066 58.1319C124.815 57.9473 124.508 57.8256 124.135 57.7586C123.762 57.6865 123.332 57.6514 122.855 57.6514H121.187V62.7227H122.599C123.168 62.7227 123.659 62.6912 124.073 62.6295C124.487 62.5746 124.82 62.4513 125.077 62.2668C125.338 62.0832 125.531 61.8163 125.655 61.4637C125.783 61.115 125.844 60.6501 125.844 60.0656ZM110.808 69.0687H108.725V63.2702C108.725 62.7684 108.709 62.3388 108.674 61.9852C108.644 61.6275 108.577 61.3456 108.47 61.1311C108.368 60.9057 108.214 60.7471 108.019 60.6449C107.82 60.5569 107.565 60.5113 107.241 60.5113C107.031 60.5113 106.806 60.5479 106.566 60.629C106.32 60.7117 106.075 60.8295 105.829 60.9725C105.578 61.1204 105.327 61.2944 105.071 61.4847C104.821 61.6732 104.58 61.8672 104.344 62.0729V69.0687H102.262V58.8999H104.344V60.3121C104.564 60.0919 104.811 59.877 105.082 59.6727C105.353 59.4632 105.64 59.2835 105.936 59.1249C106.239 58.9668 106.545 58.8435 106.867 58.7517C107.19 58.6532 107.512 58.6025 107.83 58.6025C108.403 58.6025 108.875 58.6849 109.257 58.8487C109.637 59.0123 109.938 59.2471 110.169 59.555C110.399 59.8718 110.563 60.2557 110.66 60.7169C110.757 61.1662 110.808 61.6888 110.808 62.2772V69.0687ZM99.8062 64.4218H93.1113C93.1165 64.9327 93.1727 65.3836 93.2695 65.778C93.372 66.1617 93.5318 66.4892 93.7414 66.7499C93.9562 67.0107 94.2326 67.2111 94.5654 67.3486C94.9072 67.4875 95.3279 67.5531 95.8245 67.5531C96.2894 67.5531 96.7037 67.4771 97.0623 67.3185C97.42 67.1547 97.7528 66.8836 98.0555 66.5047L99.6564 67.5952C99.4575 67.8807 99.2428 68.1373 99.0068 68.3628C98.767 68.5775 98.4854 68.7608 98.1734 68.909C97.8605 69.0531 97.4976 69.1657 97.0924 69.2418C96.684 69.3243 96.2225 69.3596 95.7066 69.3596C94.0883 69.3596 92.8912 68.9142 92.1185 68.0248C91.3467 67.1287 90.9625 65.8082 90.9625 64.0682C90.9625 63.239 91.0441 62.4922 91.2075 61.8266C91.3715 61.1571 91.6375 60.5833 92.0016 60.1076C92.3699 59.627 92.8452 59.2575 93.4389 58.9967C94.0179 58.7361 94.7383 58.6025 95.5992 58.6025C96.351 58.6025 96.9957 58.7149 97.5225 58.9455C98.061 59.1709 98.4958 59.4881 98.8324 59.9018C99.165 60.3173 99.4118 60.8191 99.5702 61.3917C99.7234 61.9745 99.8062 62.6207 99.8062 63.3318V64.4218ZM93.153 62.8865H97.7386C97.7386 62.0413 97.5587 61.3969 97.2001 60.9514C96.8476 60.5112 96.2894 60.291 95.527 60.291C95.1378 60.291 94.8052 60.3474 94.5394 60.46C94.2627 60.5729 94.0324 60.7367 93.8491 60.9618C93.6588 61.182 93.5111 61.4582 93.4086 61.7754C93.2959 62.0978 93.2084 62.4673 93.153 62.8865ZM90.8238 54.6525L90.3534 56.4629C90.1435 56.3763 89.9184 56.3043 89.6722 56.2442C89.4271 56.1918 89.1807 56.167 88.9466 56.167C88.6789 56.167 88.45 56.1969 88.2703 56.2638C88.0857 56.3256 87.9425 56.4224 87.8353 56.5718C87.7332 56.7091 87.6558 56.8889 87.6097 57.1087C87.5694 57.3342 87.5486 57.6001 87.5486 57.9068V58.8999H89.7235V60.5989H87.5486V69.0687H85.4651V60.5989H84.0843V58.8999H85.4651V57.9068C85.4651 57.3186 85.5321 56.7957 85.6554 56.3412C85.773 55.8903 85.9674 55.517 86.2434 55.2247C86.5145 54.9288 86.8685 54.7034 87.3036 54.5541C87.7384 54.4059 88.2703 54.3301 88.9045 54.3301C89.2631 54.3301 89.6052 54.3602 89.938 54.427C90.2706 54.4887 90.5681 54.5593 90.8238 54.6525ZM84.5551 54.6525L84.0843 56.4629C83.8734 56.3763 83.6495 56.3043 83.4033 56.2442C83.1583 56.1918 82.9121 56.167 82.6762 56.167C82.3994 56.167 82.1757 56.1969 82.0013 56.2638C81.8169 56.3256 81.6737 56.4224 81.5665 56.5718C81.4642 56.7091 81.3866 56.8889 81.3411 57.1087C81.3006 57.3342 81.2795 57.6001 81.2795 57.9068V58.8999H83.4544V60.5989H81.2795V69.0687H79.1963V60.5989H77.8141V58.8999H79.1963V57.9068C79.1963 57.3186 79.258 56.7957 79.3759 56.3412C79.4992 55.8903 79.6983 55.517 79.975 55.2247C80.246 54.9288 80.5983 54.7034 81.0346 54.5541C81.4696 54.4059 82.0013 54.3301 82.6354 54.3301C82.9945 54.3301 83.3364 54.3602 83.6692 54.427C84.002 54.4887 84.2995 54.5593 84.5551 54.6525ZM75.9883 69.0687H74.0018V67.9067C73.5213 68.3364 73.0193 68.6852 72.4871 68.9615C71.9501 69.2273 71.3711 69.3596 70.7475 69.3596C70.2301 69.3596 69.7756 69.2837 69.3708 69.1251C68.9668 68.9759 68.6292 68.7608 68.3632 68.4795C68.0921 68.1976 67.8862 67.861 67.7434 67.4771C67.6009 67.0986 67.5235 66.6727 67.5235 66.2078C67.5235 65.5931 67.6254 65.077 67.8298 64.6669C68.0356 64.2528 68.3161 63.9148 68.6745 63.6542C69.0378 63.3934 69.4625 63.1929 69.9538 63.0658C70.4503 62.927 70.9925 62.83 71.5767 62.7684L73.9048 62.5538V62.0729C73.9048 61.7401 73.8537 61.4582 73.7571 61.2385C73.66 61.013 73.5102 60.8337 73.3112 60.6958C73.1215 60.5622 72.8869 60.4704 72.6053 60.4091C72.3286 60.3578 72.0118 60.3329 71.6527 60.3329C71.3107 60.3329 71.0138 60.363 70.7582 60.4299C70.5012 60.4967 70.2813 60.5781 70.1028 60.675C69.9077 60.7824 69.7541 60.9005 69.6262 61.0286C69.5044 61.1662 69.4061 61.3001 69.3457 61.423L67.6923 60.3734C67.8154 60.1483 67.9885 59.9334 68.2044 59.7239C68.4197 59.5141 68.6908 59.3295 69.0077 59.1657C69.3299 59.0019 69.714 58.8643 70.1591 58.7609C70.5994 58.6532 71.1104 58.6025 71.6946 58.6025C72.4064 58.6025 73.0297 58.6641 73.5666 58.7817C74.0999 58.8999 74.5444 59.0885 74.9035 59.3597C75.2661 59.636 75.5372 60.0003 75.7218 60.4496C75.8965 60.9109 75.9883 61.4743 75.9883 62.149V69.0687ZM73.9048 66.3359V64.1243L72.4469 64.2528C72.001 64.2936 71.6071 64.3549 71.2598 64.4415C70.9218 64.5239 70.6295 64.642 70.3937 64.7954C70.1591 64.9379 69.9797 65.123 69.8566 65.3427C69.7295 65.5682 69.6681 65.8393 69.6681 66.1669C69.6681 66.7042 69.8107 67.0879 70.1028 67.3081C70.3844 67.5335 70.7831 67.6409 71.3003 67.6409C71.4942 67.6409 71.6987 67.604 71.9186 67.5336C72.1349 67.4615 72.3536 67.3698 72.5842 67.2517C72.8095 67.1339 73.0297 66.9961 73.2553 66.8365C73.4752 66.6779 73.6953 66.5141 73.9048 66.3359ZM65.1481 69.0687H63.0558V63.2702C63.0558 62.758 63.0398 62.3284 63.0045 61.9745C62.9735 61.622 62.9025 61.3353 62.7898 61.1204C62.688 60.9005 62.533 60.7471 62.3393 60.6449C62.1495 60.5569 61.8939 60.5113 61.5819 60.5113C61.3672 60.5113 61.1368 60.5479 60.89 60.629C60.6504 60.7117 60.4042 60.8295 60.154 60.9725C59.9078 61.1204 59.6576 61.2944 59.4124 61.4847C59.1558 61.6732 58.9106 61.8672 58.6798 62.0729V69.0687H56.5969V54.6314H58.6798V60.3121C58.9002 60.0919 59.1449 59.877 59.4176 59.6727C59.6887 59.4632 59.9741 59.2835 60.2768 59.1249C60.5732 58.9668 60.8862 58.8435 61.2086 58.7517C61.5203 58.6532 61.8427 58.6025 62.1703 58.6025C62.7333 58.6025 63.2038 58.6849 63.5875 58.8487C63.9665 59.0123 64.2692 59.2471 64.4984 59.555C64.7289 59.8718 64.8925 60.2557 64.9896 60.7169C65.097 61.1662 65.1481 61.6888 65.1481 62.2772V69.0687ZM52.8669 66.4839L54.4995 67.5531C54.3144 67.8295 54.1049 68.0809 53.8691 68.3011C53.6386 68.525 53.3675 68.7153 53.0607 68.8685C52.7542 69.0268 52.4062 69.1501 52.022 69.2366C51.6275 69.3191 51.1874 69.3596 50.7016 69.3596C49.8524 69.3596 49.1254 69.2366 48.5215 68.9811C47.9172 68.7153 47.426 68.3524 47.0475 67.8807C46.6688 67.4051 46.3925 66.8469 46.2129 66.1969C46.0439 65.5422 45.9577 64.8204 45.9577 64.0273C45.9577 63.193 46.0491 62.4462 46.2337 61.7754C46.4188 61.1098 46.6993 60.5427 47.0791 60.0763C47.4575 59.6058 47.9435 59.2429 48.5318 58.9863C49.1202 58.7309 49.8209 58.6025 50.6252 58.6025C51.4847 58.6025 52.2313 58.7557 52.8669 59.0528C53.4961 59.3503 53.9926 59.7996 54.3605 60.4091L52.7279 61.499C52.5028 61.1571 52.2261 60.8897 51.8935 60.7062C51.5661 60.5216 51.1465 60.4299 50.6449 60.4299C49.7752 60.4299 49.1306 60.7208 48.7204 61.2944C48.3118 61.8724 48.1127 62.7845 48.1127 64.0273C48.1127 64.5908 48.153 65.0965 48.2398 65.5422C48.3277 65.9772 48.4754 66.3451 48.6799 66.6425C48.8844 66.9348 49.1555 67.1599 49.4933 67.3185C49.8313 67.4771 50.2417 67.5531 50.7223 67.5531C50.9476 67.5531 51.1575 67.5336 51.3514 67.4967C51.5571 67.4615 51.7403 67.4051 51.9148 67.3185C52.089 67.2309 52.2526 67.1236 52.4062 66.9857C52.5591 66.8521 52.7123 66.6883 52.8669 66.4839ZM44.0435 66.2481C44.0435 66.8064 43.9358 67.2816 43.716 67.6813C43.5011 68.0757 43.2091 68.3981 42.8407 68.6431C42.483 68.8999 42.0627 69.0832 41.5869 69.1961C41.1058 69.3087 40.6041 69.3596 40.0826 69.3596C39.5495 69.3596 39.069 69.319 38.6393 69.2273C38.2095 69.1397 37.8309 69.018 37.4981 68.8526C37.1549 68.694 36.8638 68.5054 36.6228 68.2907C36.3818 68.0705 36.1825 67.8295 36.0345 67.5739L37.6156 66.5047C37.8975 66.9085 38.2397 67.2008 38.6498 67.3801C39.0543 67.5531 39.5142 67.6409 40.021 67.6409C40.2714 67.6409 40.5176 67.6252 40.7577 67.5845C40.9936 67.5424 41.2083 67.4719 41.398 67.3698C41.5817 67.2712 41.7308 67.1391 41.8425 66.9753C41.9497 66.8064 42.0061 66.5913 42.0061 66.3359C42.0061 66.1461 41.9656 65.9823 41.8792 65.8445C41.802 65.7056 41.6692 65.5879 41.4848 65.4806C41.3054 65.3784 41.0708 65.2759 40.7783 65.1841C40.4918 65.0873 40.1444 64.9892 39.7398 64.8924C39.2784 64.7795 38.8384 64.6514 38.419 64.498C38.005 64.3497 37.6319 64.1506 37.3078 63.9096C36.9913 63.6686 36.7357 63.3671 36.5454 63.0042C36.3465 62.6399 36.2493 62.1854 36.2493 61.6379C36.2493 61.2083 36.3307 60.8087 36.4945 60.4403C36.6585 60.0711 36.8993 59.7541 37.2219 59.4774C37.5493 59.2062 37.9592 58.9967 38.4398 58.8381C38.9206 58.6797 39.479 58.6025 40.1235 58.6025C40.5688 58.6025 40.9884 58.6444 41.3772 58.7309C41.7663 58.817 42.1185 58.9351 42.4409 59.0937C42.7591 59.2471 43.041 59.4265 43.2862 59.6467C43.5308 59.8614 43.7367 60.1024 43.8848 60.3734L42.3036 61.4426C42.2068 61.3053 42.0887 61.1662 41.9497 61.0286C41.8176 60.8897 41.6588 60.773 41.469 60.6646C41.2858 60.5677 41.076 60.4863 40.8509 60.4195C40.6201 60.363 40.3645 60.3329 40.0826 60.3329C39.5405 60.3329 39.1056 60.435 38.7833 60.6449C38.4557 60.8544 38.2906 61.1611 38.2906 61.5607C38.2906 61.7505 38.3326 61.9091 38.4033 62.031C38.4647 62.1646 38.5776 62.2824 38.7269 62.3849C38.8751 62.4922 39.0742 62.5838 39.3255 62.661C39.5654 62.7384 39.8681 62.8196 40.2206 62.9062C40.8038 63.0555 41.3312 63.2193 41.8124 63.3883C42.2825 63.5521 42.6871 63.7564 43.0204 64.0066C43.3475 64.2476 43.5979 64.5489 43.7776 64.9132C43.9518 65.2707 44.0435 65.7164 44.0435 66.2481ZM29.8836 58.9455L29.4682 60.941C29.3662 60.9005 29.2324 60.8648 29.0688 60.8336C28.9048 60.8035 28.7322 60.7824 28.5578 60.7824C28.2763 60.7824 28.0051 60.8243 27.7496 60.9005C27.5028 60.9829 27.2635 61.0851 27.0329 61.2172C26.8021 61.3456 26.582 61.5042 26.3673 61.6888C26.1573 61.8724 25.9481 62.0625 25.7371 62.2564V69.0687H23.6553V58.8999H25.7371V60.4496C25.9571 60.2153 26.1822 59.9951 26.413 59.7908C26.6489 59.5799 26.894 59.4016 27.1508 59.243C27.406 59.0885 27.6722 58.972 27.9485 58.8786C28.2196 58.7869 28.5171 58.7413 28.8343 58.7413C29.0688 58.7413 29.2691 58.7609 29.4434 58.7978C29.6164 58.8329 29.7657 58.8787 29.8836 58.9455ZM20.7942 56.2231C20.7942 56.653 20.6919 56.9449 20.4874 57.1087C20.2868 57.2725 19.9701 57.3539 19.5455 57.3539C19.0792 57.3539 18.762 57.2569 18.5839 57.0616C18.4043 56.8729 18.3169 56.5914 18.3169 56.2231C18.3169 55.8235 18.4095 55.5326 18.5929 55.3532C18.783 55.1738 19.1 55.0874 19.5455 55.0874C19.9907 55.0874 20.3079 55.1738 20.4968 55.3532C20.6971 55.5274 20.7942 55.8183 20.7942 56.2231ZM20.6002 69.0687H18.517V58.8999H20.6002V69.0687Z" fill="white"/>
</svg>
