<svg width="19" height="19" viewBox="0 0 19 19" fill="none" xmlns="http://www.w3.org/2000/svg">
<path d="M9.93521 18.9569C7.47521 18.9569 7.18521 18.9439 6.22521 18.9019C5.47658 18.8773 4.73764 18.7251 4.04021 18.4519C2.83352 17.9823 1.87935 17.0278 1.41021 15.8209C1.14752 15.1209 1.00583 14.3814 0.991211 13.6339C0.935211 12.6759 0.935211 12.3619 0.935211 9.9209C0.935211 7.4539 0.948211 7.1659 0.991211 6.2109C1.00615 5.46442 1.14783 4.72591 1.41021 4.0269C1.87884 2.81843 2.83456 1.86307 4.04321 1.3949C4.74185 1.1311 5.48056 0.989043 6.22721 0.974898C7.18221 0.920898 7.49621 0.920898 9.93521 0.920898C12.4152 0.920898 12.7002 0.933898 13.6452 0.974898C14.3938 0.989165 15.1345 1.13121 15.8352 1.3949C17.0435 1.8636 17.999 2.81877 18.4682 4.0269C18.7353 4.73609 18.8778 5.48615 18.8892 6.2439C18.9452 7.2019 18.9452 7.5149 18.9452 9.9549C18.9452 12.3949 18.9312 12.7149 18.8892 13.6619C18.8743 14.4101 18.7323 15.1503 18.4692 15.8509C17.9989 17.0586 17.0433 18.0135 15.8352 18.4829C15.1355 18.7451 14.3963 18.8868 13.6492 18.9019C12.6942 18.9569 12.3812 18.9569 9.93521 18.9569ZM9.90121 2.5039C7.45521 2.5039 7.20121 2.5159 6.24621 2.5589C5.6762 2.56645 5.11169 2.67164 4.57721 2.8699C3.78796 3.17191 3.16344 3.79389 2.85821 4.5819C2.65842 5.1222 2.55322 5.69288 2.54721 6.2689C2.49421 7.2379 2.49421 7.4919 2.49421 9.9209C2.49421 12.3209 2.50321 12.6119 2.54721 13.5749C2.55616 14.1451 2.66131 14.7097 2.85821 15.2449C3.16389 16.0324 3.78831 16.6539 4.57721 16.9559C5.11133 17.1555 5.67606 17.2607 6.24621 17.2669C7.21421 17.3229 7.46921 17.3229 9.90121 17.3229C12.3542 17.3229 12.6082 17.3109 13.5552 17.2669C14.1256 17.26 14.6905 17.1548 15.2252 16.9559C16.0097 16.6513 16.6301 16.0312 16.9352 15.2469C17.1346 14.7061 17.2398 14.1352 17.2462 13.5589H17.2572C17.3002 12.6029 17.3002 12.3479 17.3002 9.9049C17.3002 7.4619 17.2892 7.2049 17.2462 6.2499C17.2372 5.68035 17.1321 5.11641 16.9352 4.5819C16.6308 3.79647 16.0103 3.17519 15.2252 2.8699C14.6907 2.67064 14.1257 2.56542 13.5552 2.5589C12.5882 2.5039 12.3352 2.5039 9.90121 2.5039ZM9.93521 14.5399C8.0652 14.5411 6.37863 13.4156 5.66207 11.6884C4.94552 9.96108 5.34012 7.97223 6.66184 6.64936C7.98357 5.32649 9.97207 4.93017 11.7 5.64523C13.4279 6.36029 14.5548 8.04589 14.5552 9.9159C14.5525 12.467 12.4863 14.5349 9.93521 14.5399ZM9.93521 6.9139C8.27836 6.9139 6.93521 8.25704 6.93521 9.9139C6.93521 11.5708 8.27836 12.9139 9.93521 12.9139C11.5921 12.9139 12.9352 11.5708 12.9352 9.9139C12.9314 8.25864 11.5905 6.91775 9.93521 6.9139ZM14.7352 6.2009C14.1406 6.19869 13.6601 5.71549 13.6612 5.12091C13.6623 4.52633 14.1446 4.04491 14.7392 4.04491C15.3338 4.04491 15.8161 4.52632 15.8172 5.1209C15.8175 5.40776 15.7035 5.68292 15.5005 5.88558C15.2974 6.08823 15.0221 6.2017 14.7352 6.2009Z" fill="#E55645"/>
</svg>
