<svg width="51" height="51" viewBox="0 0 51 51" fill="none" xmlns="http://www.w3.org/2000/svg">
<path fill-rule="evenodd" clip-rule="evenodd" d="M7.73416 38.365H2.98644V20.6757H7.9639V38.1353C7.9639 38.3118 7.91064 38.365 7.73416 38.365ZM27.9504 29.4056C28.2881 29.3153 29.1096 28.2842 29.4054 28.0271C29.6644 28.0963 30.1232 28.5078 30.3481 28.6925C31.311 29.4833 32.0356 29.1615 32.9999 28.6352C33.8795 28.1551 34.9201 28.2518 35.3685 27.1749C35.4535 26.9708 35.6016 25.718 35.6081 25.4235H37.6757C37.903 26.3994 37.7222 27.7306 38.8891 28.1156C39.3101 28.2545 39.9165 28.3914 40.3133 28.6057C42.3081 29.6832 42.301 29.0834 43.8784 28.0271C43.9431 28.0703 43.9775 28.0837 44.0599 28.1519L45.1357 29.2204C45.1464 29.2319 45.1625 29.2479 45.173 29.2597C45.2456 29.3418 45.2747 29.3944 45.3334 29.4821C45.2242 29.6452 45.1395 29.7685 45.0168 29.9313C43.5572 31.8687 44.1889 31.2603 45.245 34.4715C45.324 34.712 45.4314 34.8657 45.608 35.0273C45.6532 35.0686 45.6861 35.0915 45.735 35.1302L45.8651 35.2297C46.3365 35.57 47.3474 35.5475 47.937 35.6849V37.7524C47.7202 37.7524 46.3984 37.8993 46.2265 37.9563C45.2044 38.295 45.153 39.4626 44.7469 40.3055C44.001 41.8536 43.8622 42.0723 45.0697 43.5296L45.3334 43.9551L44.4814 44.7877C44.3826 44.8866 44.3992 44.867 44.2955 44.9848C44.0949 45.2125 44.1173 45.1736 43.8784 45.3336L43.2036 44.8597C43.0908 44.778 43.0981 44.7904 42.9835 44.6969C41.74 43.6834 41.1311 44.4212 39.6653 45.0259C39.2214 45.209 38.7129 45.2521 38.346 45.6208C37.7464 46.2232 37.8581 47.1542 37.6757 47.9372H35.6081C35.5944 47.3241 35.4984 46.4274 35.2277 45.9437C34.8678 45.3005 34.312 45.2966 33.6712 45.0497C32.6519 44.6569 31.8532 43.8591 30.8693 44.3469C30.3798 44.5897 29.8656 45.2106 29.4054 45.3336L27.9681 43.9374C28.3665 43.287 29.1757 42.7347 29.1757 41.8876C29.1757 41.257 28.8893 40.9233 28.6544 40.4944C28.5182 40.2455 28.4912 40.0597 28.3703 39.783C28.2682 39.5496 28.3315 39.7718 28.24 39.4539C27.9281 38.3704 27.5456 37.9193 26.337 37.8342C25.9815 37.8092 25.6921 37.7584 25.4234 37.7524V35.6849C26.4973 35.4346 27.6451 35.6403 28.1136 34.393C28.152 34.2908 28.1694 34.1935 28.2096 34.0295C28.5451 32.6598 29.8397 31.82 28.6636 30.377L27.9504 29.4056ZM36.6036 14.8559C36.8475 14.7908 36.6723 14.8676 36.8475 14.7169L37.2183 14.322C37.3322 14.1958 37.3345 14.2029 37.4467 14.0908L38.0307 13.5262C38.1484 13.4067 38.1451 13.3986 38.2497 13.2858L38.8351 12.7225C39.2339 12.3386 39.4264 12.031 39.8964 11.7162L41.4661 13.2862C41.6567 13.4924 42.8573 14.7878 43.1127 14.8559V24.7343C42.9864 24.8189 42.886 24.8796 42.7533 24.9875C42.585 25.1244 42.5148 25.1625 42.3596 25.2831L41.9875 25.6002C41.8345 25.7172 41.7257 25.7862 41.5811 25.883C41.1049 25.469 40.8921 25.7824 40.775 25.2342C40.5897 24.3677 40.7636 23.5005 40.1388 22.8073C39.5393 22.1422 37.8004 22.3605 36.6036 22.3605V14.8559ZM27.1081 24.0451C27.1081 26.5093 27.5897 25.5163 25.8637 27.2422C25.5519 27.5541 25.2969 27.8139 24.9823 28.1221C24.743 28.3565 24.7281 28.3406 24.5864 28.6451C24.2707 29.3234 24.2513 29.5554 24.7136 30.2685C24.8039 30.4077 24.77 30.347 24.8097 30.4022L25.2702 31.0137C25.7983 31.6856 25.8409 31.5677 25.6703 32.0964C25.4597 32.7491 25.6216 32.4562 24.4706 32.6645C23.5702 32.8274 23.0796 32.7561 22.602 33.476C22.2621 33.9883 22.3601 34.2091 22.3603 34.9956L22.363 37.6785C22.3686 38.0194 22.4534 38.365 22.1306 38.365H11.2567C11.0802 38.365 11.027 38.3118 11.027 38.1353V3.06307H33.5405V22.5902C32.5764 22.8476 32.6831 24.6915 32.555 25.2803C32.4783 25.6329 32.5679 25.4861 32.0494 25.6936C31.7346 25.8195 32.1549 25.8064 31.7027 25.8064C31.5409 25.8064 30.9224 25.2626 30.7664 25.1346C30.3356 24.781 30.1562 24.9107 30.1688 24.124C30.1807 23.3891 29.9914 22.8019 29.3777 22.5414C28.6831 22.2464 28.0757 22.3438 27.5826 22.8349C27.3625 23.0542 27.3561 23.03 27.2579 23.3526C27.1908 23.5732 27.1081 23.778 27.1081 24.0451ZM7.9639 1.45492V17.5361H1.83775C1.09536 17.5361 0.634135 17.7126 0.236305 18.232C0.0901425 18.4227 -6.10352e-05 18.5945 -6.10352e-05 18.8379V40.0497C-6.10352e-05 40.7239 0.535918 41.2674 1.17755 41.399C1.82027 41.5309 24.6685 41.4281 25.7297 41.4281C25.8077 41.7632 25.7586 41.8015 25.5306 42.0703C25.5202 42.0825 25.5043 42.0984 25.4937 42.1106L25.1863 42.4928C24.5921 43.1835 24.0669 43.8963 24.6551 44.8766C24.8084 45.1322 24.7233 45.0048 24.9257 45.2186C25.0731 45.3745 25.0878 45.3789 25.2324 45.5246L26.1125 46.4057C26.3188 46.6094 26.5224 46.8083 26.7239 47.0196L27.2979 47.5941C28.1061 48.3894 29.0026 49.5828 30.2597 48.6382C30.4083 48.5267 30.4268 48.4984 30.6046 48.3705C30.6229 48.3574 30.6763 48.3205 30.6939 48.3067C31.9394 47.3333 31.3676 47.5863 32.5451 47.8606C32.5451 48.2057 32.5954 48.5374 32.6344 48.9199L32.8366 49.9429C32.9706 50.3018 33 50.4024 33.2788 50.6494C33.4868 50.8337 33.7928 51.0002 34.1531 51.0002H39.2838C39.8832 51.0002 40.3975 50.4003 40.5279 49.8704C40.9319 48.229 40.4281 47.9528 41.3818 47.6509C41.647 47.567 41.5993 47.5373 41.7996 47.6376C42.536 48.0066 43.0731 49.063 44.0942 48.9897C44.9747 48.9265 46.185 47.4301 46.8075 46.8076C47.6625 45.9527 48.9325 45.0183 48.9325 44.0317C48.9325 43.7795 48.8059 43.357 48.6621 43.1534C48.6529 43.1403 48.6381 43.1233 48.6284 43.1106L48.3638 42.7625C48.2239 42.5774 48.0991 42.4302 47.9547 42.2528C47.789 42.0493 47.6859 41.8739 47.4775 41.7344L47.6899 41.2576C47.8353 40.8905 47.686 40.9224 48.0114 40.8133C48.9452 40.5004 50.2986 40.9244 50.8179 39.791C50.8906 39.6323 51.0001 39.3712 51.0001 39.2074V34.0767C51.0001 33.7825 50.9897 34.0554 50.8915 33.8025C50.5357 32.8858 49.7683 32.8042 48.8248 32.6528C48.2588 32.562 47.9374 32.726 47.7235 32.2227C47.6345 32.0134 47.572 31.8814 47.4775 31.7028C48.755 30.2332 49.6928 29.3305 47.9852 27.7492L46.6429 26.4113C46.2274 26.016 46.167 25.96 46.1745 25.2717L46.1776 14.5478C46.1844 13.3129 45.5073 13.0006 44.4719 11.9651C44.0154 11.5086 41.1666 8.51991 40.7016 8.23093C40.6573 8.20332 40.355 8.05431 40.3458 8.05067C39.8234 7.84316 39.1971 8.0213 38.8021 8.40121C38.1288 9.04852 37.3472 10.0698 36.6036 10.5676C36.6036 7.61094 36.681 4.63785 36.6064 1.68196C36.5879 0.950638 36.1268 0 35.3018 0H9.26566C8.7659 0 8.26519 0.464281 8.08486 0.886738C8.00842 1.06591 7.9639 1.23422 7.9639 1.45492Z" fill="#E55645"/>
<path fill-rule="evenodd" clip-rule="evenodd" d="M36.9866 39.131C36.1753 39.131 35.7225 39.1544 35.0056 38.5084L34.5592 37.9593C34.0925 37.0862 34.0841 36.3474 34.5393 35.4584C35.2454 34.0795 37.3602 33.8687 38.4262 34.9347C38.6145 35.123 38.7914 35.39 38.8888 35.6207C39.7306 37.6151 38.1025 39.131 36.9866 39.131ZM31.1668 36.604C31.1668 37.5653 31.3614 38.6224 31.8308 39.386C32.197 39.9815 32.1901 40.0394 32.7061 40.5782C34.8735 42.8419 39.0258 42.6772 40.9256 40.2365C42.1889 38.6135 42.4755 36.9053 41.8889 34.9179C41.8211 34.6881 41.8228 34.6278 41.7025 34.4152C41.1947 33.5185 41.0643 33.1504 40.086 32.3559C40.0066 32.2916 39.9473 32.2475 39.867 32.192L39.0028 31.6779C37.7042 30.9853 35.761 31.0196 34.4076 31.651C33.3863 32.1275 32.4501 32.899 31.9056 33.8967C31.3933 34.8353 31.1668 35.4106 31.1668 36.604Z" fill="#E55645"/>
<path fill-rule="evenodd" clip-rule="evenodd" d="M14.32 24.0453C14.32 25.0658 14.1555 26.1294 14.9447 26.7133C15.9444 27.453 17.4596 26.9042 17.4596 25.1939C17.4596 24.3954 17.566 23.4977 17.0221 22.8747C16.1279 21.8506 14.32 22.4508 14.32 24.0453Z" fill="#E55645"/>
<path fill-rule="evenodd" clip-rule="evenodd" d="M14.3198 16.0811C14.3198 17.2551 14.1402 18.3589 15.2089 18.8676C15.817 19.157 16.402 19.0927 16.8953 18.6566C16.9071 18.6462 16.9232 18.6303 16.9347 18.6195C16.9462 18.6087 16.9623 18.5927 16.9734 18.5817C16.9846 18.5705 17.0006 18.5545 17.0115 18.5431C17.6493 17.8749 17.6576 15.621 17.021 14.9114C16.4559 14.2815 15.5741 14.185 14.8917 14.7387C14.5156 15.0439 14.3198 15.5858 14.3198 16.0811Z" fill="#E55645"/>
<path fill-rule="evenodd" clip-rule="evenodd" d="M14.3198 8.0403C14.3198 8.52608 14.2762 9.54485 14.3994 9.95164C14.6504 10.7796 15.6144 11.3213 16.5958 10.8524C16.9136 10.7006 16.8545 10.7208 17.0634 10.4776C17.5808 9.87564 17.7029 7.56589 16.9735 6.84157C16.9623 6.83056 16.9462 6.81453 16.9348 6.80375L16.5183 6.53103C15.4426 6.02499 14.3198 6.81278 14.3198 8.0403Z" fill="#E55645"/>
<path fill-rule="evenodd" clip-rule="evenodd" d="M20.7523 23.7393C20.7523 25.1927 20.4878 26.3182 21.6027 26.8708C22.7272 27.4283 23.8154 26.4582 23.8154 25.6537C23.8154 24.5531 24.0106 23.3862 23.3592 22.8171C22.4623 22.0332 21.3116 22.3735 20.9456 23.1668C20.8558 23.3615 20.7523 23.5237 20.7523 23.7393Z" fill="#E55645"/>
<path fill-rule="evenodd" clip-rule="evenodd" d="M20.7523 7.7345C20.7523 9.0289 20.4207 11.0273 22.2838 11.0273C22.9313 11.0273 23.3943 10.701 23.6541 10.1769C23.9236 9.63344 23.8154 8.70882 23.8154 7.88765C23.8154 7.23874 23.3922 6.76739 22.8883 6.5174C21.7048 5.93027 20.7523 7.09607 20.7523 7.7345Z" fill="#E55645"/>
<path fill-rule="evenodd" clip-rule="evenodd" d="M20.7524 15.8514C20.7524 16.8911 20.5725 17.9144 21.1233 18.5436C21.9947 19.539 23.8155 18.9087 23.8155 17.536C23.8155 16.5189 23.9384 15.9116 23.6449 15.2562C22.9958 13.8069 20.7524 14.2998 20.7524 15.8514Z" fill="#E55645"/>
<path fill-rule="evenodd" clip-rule="evenodd" d="M27.108 8.19364C27.108 8.84729 27.0238 9.95495 27.4571 10.4482C28.523 11.6612 30.171 10.7911 30.171 9.64863C30.171 8.42505 30.3721 7.37124 29.7339 6.79307C29.0582 6.18095 28.1612 6.25986 27.5433 6.86768C27.271 7.1356 27.108 7.68593 27.108 8.19364Z" fill="#E55645"/>
<path fill-rule="evenodd" clip-rule="evenodd" d="M27.1082 16.158C27.1082 17.0399 26.999 17.8682 27.5212 18.5019C28.0787 19.1784 28.9744 19.2237 29.6512 18.701C30.3928 18.1282 30.1713 16.7928 30.1713 15.622C30.1713 15.3869 30.0328 15.1798 29.8883 14.986C29.3771 14.3 28.2097 14.158 27.6034 14.8153C27.5757 14.8454 27.4963 14.933 27.4941 14.9357L27.1082 16.158Z" fill="#E55645"/>
</svg>
