<svg width="45" height="42" viewBox="0 0 45 42" fill="none" xmlns="http://www.w3.org/2000/svg">
<path d="M33.7499 22.4998C29.4612 22.4998 30 25.4928 22 25.4928C14 25.4928 15.748 22.4998 11.25 22.4998C9 22.4998 0 29.9998 0 35.1665C0 35.1665 0.399395 38.4656 2.34684 40.0065C3.62696 41.0194 5.9739 41.4998 5.9739 41.4998H40.1105C40.1105 41.4998 42.013 41.2596 43.5242 40.0065C45.0353 38.7534 44.9999 35.1665 44.9999 35.1665C42.5 27.4998 36 21.9997 33.7499 22.4998Z" fill="#E55645"/>
<path d="M22.5002 22.9999C28.7133 22.9999 33.7502 17.9632 33.7502 11.75C33.7502 5.53678 28.7133 0.5 22.5002 0.5C16.287 0.5 11.2502 5.53678 11.2502 11.75C11.2502 17.9632 16.287 22.9999 22.5002 22.9999Z" fill="#E55645"/>
</svg>
