<svg width="35" height="42" viewBox="0 0 35 42" fill="none" xmlns="http://www.w3.org/2000/svg">
<path fill-rule="evenodd" clip-rule="evenodd" d="M11.0103 33.1748C9.9978 33.1748 8.92303 31.946 10.1894 30.531L13.6124 26.3706C13.7809 26.1611 13.8461 26.0919 14.017 25.9001L15.562 24.018C15.9447 23.5346 16.0515 23.6818 16.0428 22.8218L16.0414 14.289C16.0386 13.575 16.0588 13.349 16.3338 12.9043C16.683 12.3393 17.5644 12.1493 18.1939 12.5016C19.0193 12.9635 18.8854 13.832 18.8854 14.6538C18.8854 16.08 18.8095 21.2702 18.8892 22.2334C18.9385 22.8293 19.0097 23.4023 18.9096 24.0114C18.7572 24.9399 17.5514 26.0142 16.9485 26.7899L12.2323 32.5009C12.1642 32.5778 12.0857 32.6695 12.0257 32.7319C11.9332 32.8282 12.0654 32.7147 11.9142 32.8391C11.7012 33.0145 11.3442 33.1748 11.0103 33.1748ZM-0.00012207 23.7685C-0.00012207 25.0073 0.155359 26.5465 0.463061 27.6803C0.548607 27.996 0.573584 28.2955 0.654482 28.5827C0.733298 28.8625 0.823285 29.0698 0.921319 29.4097C1.10518 30.0473 1.57266 31.1863 1.92005 31.765C1.92824 31.7786 1.93989 31.7963 1.9478 31.8102L4.06439 35.0165C4.26982 35.2471 4.34545 35.3744 4.57524 35.5995C4.6732 35.6954 4.74161 35.7543 4.83 35.8551L6.52406 37.4424C6.6563 37.5518 6.74032 37.5882 6.86479 37.685C7.08209 37.854 7.24041 37.9905 7.47769 38.1658L8.82319 39.0078C9.08732 39.1441 9.22344 39.2552 9.53232 39.3924L11.0197 40.0926C12.6488 40.7077 14.6373 41.2837 16.4074 41.2674C16.8771 41.2631 17.0013 41.3392 17.4259 41.3461L19.4819 41.2088C19.8407 41.1681 20.1188 41.1644 20.4569 41.0901C21.0499 40.9596 21.6593 40.8676 22.2194 40.665L23.8724 40.1306C25.2574 39.6562 26.9133 38.673 28.0549 37.7505L29.7974 36.2846C29.8087 36.2747 29.8254 36.261 29.8366 36.251C30.534 35.6229 31.8573 33.9211 32.2537 33.1993C32.3655 32.9959 32.3502 33.0497 32.4587 32.8939C32.5525 32.7591 32.5916 32.6607 32.6707 32.5225C32.8054 32.2871 32.9063 32.0659 33.0521 31.8102C33.0601 31.7963 33.0717 31.7786 33.0799 31.765L33.2411 31.4888C33.9937 29.8437 34.7131 27.7526 34.8488 25.9506C34.9031 25.2306 35.0001 24.647 35.0001 23.9143C35.0001 23.1456 34.8837 22.5804 34.8537 21.8731C34.8207 21.093 34.5662 19.8424 34.3362 19.1094L33.6436 17.1041C33.4495 16.5836 33.1569 16.1443 32.9282 15.632L32.5443 14.9221C31.8589 13.7436 30.9653 12.6662 30.0445 11.6615C29.6349 11.2146 29.1811 10.8926 28.7475 10.4793L27.5211 9.51823C27.2702 9.33652 27.1184 9.25598 26.8624 9.08308C26.7409 9.001 26.671 8.9505 26.5518 8.88327C26.4837 8.8449 26.4357 8.82575 26.3618 8.78162L25.1253 8.1223C23.6523 7.46749 23.0449 7.26344 21.4812 6.80809C20.6033 6.55243 18.4048 6.34131 17.427 6.34131C16.5316 6.34131 14.3394 6.55743 13.5777 6.79408C13.2789 6.88691 13.1221 6.942 12.7177 7.02782C12.3323 7.10955 12.2082 7.18511 11.8951 7.29896L9.97546 8.07734C8.86086 8.61067 7.90272 9.23419 6.89747 9.95769L4.63934 12.0016C3.75481 12.9373 2.96894 14.0473 2.32919 15.1603C2.18938 15.4036 2.09683 15.6161 1.95349 15.8783C1.79815 16.1626 1.73647 16.3385 1.60347 16.6221L0.689311 18.9892L0.279966 20.7674C0.118449 21.7595 -0.00012207 22.7569 -0.00012207 23.7685Z" fill="#E55645"/>
<path fill-rule="evenodd" clip-rule="evenodd" d="M11.6665 1.82051C11.6665 2.20814 11.6241 2.48941 11.8005 2.78025C12.0512 3.19355 12.4702 3.57049 12.979 3.57049H22.0937C22.8138 3.57049 23.9364 2.2916 22.9492 1.11075C22.7278 0.845995 22.4809 0.653809 22.0208 0.653809H12.979C12.3614 0.653809 11.6665 1.25874 11.6665 1.82051Z" fill="#E55645"/>
<path fill-rule="evenodd" clip-rule="evenodd" d="M28.2187 8.09086V8.38254C28.5045 8.44914 29.2376 9.06822 29.4993 9.28948L29.8854 9.6325C30.12 9.82038 30.2355 9.87762 30.4062 10.1326C30.7104 9.92882 32.0833 8.70898 32.0833 8.01795C32.0833 7.63663 32.0908 7.66889 31.9312 7.295C31.8249 7.046 31.8238 7.05807 31.6314 6.86568C30.8066 6.04088 29.947 6.42185 29.2415 7.14493L28.5086 7.8703C28.2946 8.06478 28.4455 8.00879 28.2187 8.09086Z" fill="#E55645"/>
</svg>
