<svg width="37" height="41" viewBox="0 0 37 41" fill="none" xmlns="http://www.w3.org/2000/svg">
<path fill-rule="evenodd" clip-rule="evenodd" d="M8.10207 16.9906C8.10207 18.3838 8.41544 20.142 9.04467 21.3769L10.5746 23.7462L11.861 25.0591L14.7233 26.7459C15.9332 27.2321 16.3421 27.1699 17.3155 27.403C18.9314 27.79 21.2182 27.146 22.7235 26.5432C23.4674 26.2452 24.1244 25.7897 24.7747 25.3451C25.2763 25.0019 25.7037 24.5468 26.1194 24.0904C26.4317 23.7476 26.4338 23.8055 26.7172 23.3884L27.2706 22.6421C27.3578 22.5 27.3935 22.3718 27.4965 22.2181C27.6443 21.9977 27.6225 22.0936 27.738 21.8098C27.8129 21.6256 27.8611 21.5611 27.955 21.3769C28.8578 19.6056 29.2 16.4701 28.6464 14.6425C28.5828 14.4326 28.5516 14.3777 28.5017 14.1374C28.1668 12.5259 26.9719 10.7942 25.8779 9.61253C25.3973 9.09343 24.3418 8.33145 23.6615 7.92984C23.3645 7.75454 23.1289 7.63389 22.8117 7.47987C22.6236 7.3886 22.5395 7.3672 22.3412 7.30049C22.1366 7.2316 22.0758 7.18232 21.8868 7.10515C21.6008 6.98847 21.2191 6.92231 20.8811 6.81107C20.5606 6.70558 20.1005 6.65042 19.7826 6.6098C19.5619 6.58154 19.3691 6.60615 19.1533 6.58927C18.462 6.53504 17.9573 6.53158 17.2742 6.60201C16.7525 6.6558 15.6273 6.90969 15.1597 7.08691L14.2316 7.45853C13.9207 7.60421 13.659 7.73364 13.3777 7.9043C13.1063 8.06903 12.8319 8.2254 12.5761 8.40256C12.3125 8.58528 12.0904 8.76175 11.8548 8.98095C11.6335 9.18692 11.3601 9.3723 11.1533 9.57914C10.9477 9.78473 10.766 10.0546 10.5469 10.2724L9.97719 11.0025C9.5548 11.5619 9.72534 11.4185 9.47967 11.8047C9.17031 12.2908 8.86615 13.0274 8.64781 13.5723C8.52167 13.8872 8.47209 14.2851 8.37012 14.5943C8.18456 15.1571 8.10207 16.2433 8.10207 16.9906Z" fill="#E55645"/>
<path fill-rule="evenodd" clip-rule="evenodd" d="M17.655 4.83823C18.414 4.83823 19.2253 4.78784 19.9574 4.94026C21.4452 5.25011 21.1172 5.01106 22.8629 5.67405C23.0557 5.74726 23.2246 5.79667 23.3832 5.86864C23.5842 5.95997 23.6965 6.05049 23.8943 6.13731C24.1167 6.23482 24.1595 6.22623 24.376 6.37055L25.7141 7.24198C26.2599 7.6622 26.8137 8.11594 27.2581 8.62236C27.8233 9.26643 28.4207 9.91167 28.8542 10.6654C29.3102 11.4585 29.7046 12.2949 29.9937 13.1651C30.1326 13.5831 30.2212 13.8683 30.3285 14.325C30.3743 14.52 30.3919 14.702 30.4284 14.94C30.4735 15.2334 30.5403 15.3936 30.5717 15.5765L30.6523 16.9906C30.6523 18.3463 30.3698 19.9878 29.8911 21.2334L29.3563 22.3883C29.0605 22.9561 28.7942 23.5721 28.3715 24.0679C27.4377 25.1632 27.3328 25.4606 26.1499 26.4604L25.4806 26.9607C24.7222 27.4885 23.7888 28.0617 22.9124 28.3567L20.2492 29.0727C19.1813 29.1929 17.0351 29.2489 16.0766 28.9669C15.9494 28.9294 15.8468 28.8846 15.6809 28.8427L12.8026 27.7568C12.2379 27.4776 11.2384 26.8305 10.7819 26.3982L8.38812 23.7231C8.29475 23.5792 8.23607 23.5098 8.15736 23.369C7.89054 22.8918 7.56374 22.3973 7.37867 21.8731C7.06944 20.9973 6.75025 20.2056 6.59802 19.2745L6.35075 17.3121C6.30332 16.754 6.43632 15.6828 6.52506 15.2187C6.64495 14.5918 6.74488 13.9436 6.94058 13.3597L7.24406 12.4934C7.60524 11.6976 7.92269 11.0445 8.38187 10.3169C8.54815 10.0535 8.69166 9.87958 8.86925 9.63459C9.34667 8.97581 9.80208 8.55274 10.5148 7.90076C10.7006 7.73072 10.5742 7.7766 10.8037 7.60489C10.9409 7.5023 11.0146 7.46347 11.1472 7.36354C11.3659 7.19888 11.5457 7.04776 11.7857 6.89725L13.572 5.88917C14.5381 5.42622 15.5791 5.16125 16.6536 5.00655C17.028 4.95263 17.3022 4.83823 17.655 4.83823ZM9.66172 3.01858C8.38435 3.01858 7.72297 3.98975 7.55318 5.19916L7.27449 7.06507C7.21544 7.37374 7.1996 7.71822 7.14315 7.97347C6.9297 8.93846 6.36064 9.19724 5.56384 9.64349C4.79524 10.074 3.37034 10.5754 2.78112 11.1498C2.20495 11.7116 1.89275 12.6172 2.2525 13.4172C2.70723 14.4285 4.00791 16.3524 4.00791 17.2506C4.00791 18.2035 3.22527 19.271 2.8168 20.1536C2.63878 20.5383 2.41148 20.833 2.26042 21.2219C1.98445 21.9322 2.13792 22.8179 2.6347 23.3678L2.69783 23.4346C2.86546 23.6098 2.89755 23.6118 3.10946 23.7379L4.3971 24.3999C4.46907 24.4331 4.53375 24.4752 4.60665 24.5152C5.15067 24.814 6.06878 25.1172 6.5057 25.5405C6.76992 25.7964 6.31575 25.335 6.56828 25.6079C7.2244 26.3171 7.0708 26.4963 7.27455 27.5661C7.4018 28.2345 7.47167 29.1897 7.63189 29.8732C7.71753 30.2386 7.81572 30.5338 8.02027 30.7845C8.86789 31.8238 9.75534 31.6031 11.038 31.4292C11.9309 31.3082 13.5946 30.7469 14.4442 31.3141C14.9607 31.6588 15.3649 32.1189 15.7871 32.5706C15.8843 32.6746 15.9456 32.7303 16.0466 32.8311C16.4092 33.1927 16.7223 33.5124 17.0851 33.8721C17.9003 34.6802 19.0993 34.6802 19.9146 33.8721C20.5271 33.265 21.8385 31.7927 22.5554 31.3141C23.1574 30.9123 24.1731 31.1491 24.8093 31.2169C25.9385 31.3372 27.4264 31.9792 28.4348 31.2797C29.3369 30.654 29.4064 29.7992 29.5356 28.7412C29.5924 28.2765 29.6548 27.9357 29.7251 27.5661C29.9466 26.403 29.9141 25.6548 31.2179 25.0947C31.9358 24.7863 32.7567 24.2696 33.4282 23.9908C34.6219 23.495 35.294 22.2504 34.6311 21.0052C34.5656 20.8822 34.5405 20.8121 34.4855 20.6958C34.0557 19.7861 32.9918 18.2355 32.9918 17.3156C32.9918 17.0511 33.0515 16.8332 33.1061 16.6501C33.1839 16.3894 33.2478 16.3636 33.3602 16.1243C33.712 15.3748 34.8763 13.4886 34.8763 12.7666C34.8763 12.2298 34.785 11.8531 34.5096 11.4437C34.2987 11.1302 33.9867 10.9357 33.6459 10.7477C33.498 10.6662 33.4891 10.6592 33.2985 10.5752L30.7932 9.31132C30.538 9.14258 30.3932 9.03721 30.2135 8.78623C30.0327 8.53357 29.9531 8.39277 29.8863 8.07371C29.6841 7.10854 29.5141 5.14203 29.2644 4.40651C28.5466 2.29296 26.2166 3.21596 24.627 3.427C23.9686 3.51443 23.2684 3.68292 22.6777 3.38977C22.5611 3.33189 22.2889 3.13248 22.1799 3.04275L21.3978 2.26513C20.7427 1.61 19.6669 0.15918 18.6948 0.15918C17.2916 0.15918 16.9985 0.869777 16.0459 1.79939L14.9194 2.94741C13.899 4.00316 12.3648 3.38081 11.0965 3.20853C10.6952 3.154 10.0631 3.01858 9.66172 3.01858Z" fill="#E55645"/>
<path fill-rule="evenodd" clip-rule="evenodd" d="M27.4029 32.9125L24.6807 32.5153C23.6077 32.2265 23.1363 32.2006 22.529 33.1075C22.731 33.4091 28.6968 39.3076 29.4338 40.0447C30.0183 40.6292 30.049 40.8408 30.9122 40.8408C31.8266 40.8408 31.9272 39.4959 32.0261 38.9003L32.3867 36.9214C32.4894 36.2354 32.4137 36.3636 33.9201 36.1153C34.4 36.0363 34.8169 35.9296 35.2185 35.8541C35.6311 35.7765 37.0916 35.7295 36.9955 34.5592C36.9568 34.0884 36.709 33.864 36.4526 33.6108C35.6681 32.836 31.3077 28.3898 30.9772 28.1685C30.6481 28.8543 30.8585 30.4299 30.0968 31.4471C29.6263 32.0753 29.0614 32.5368 28.2869 32.7566C28.0766 32.8163 27.6214 32.9125 27.4029 32.9125Z" fill="#E55645"/>
<path fill-rule="evenodd" clip-rule="evenodd" d="M6.21746 40.8408C6.93189 40.8408 7.09482 40.5158 7.53341 40.0772C8.26559 39.3451 14.27 33.4072 14.4707 33.1075C13.661 31.8982 13.1535 32.427 11.0301 32.7211C10.0185 32.8612 9.75827 33.044 8.77331 32.7611C7.41889 32.3722 6.57739 31.3783 6.34656 29.9889C6.26241 29.4823 6.20243 28.5434 6.02249 28.1685C5.69199 28.3898 1.33157 32.836 0.547141 33.6108C-0.172299 34.3213 -0.201302 35.1114 0.573789 35.5668C0.836584 35.7211 2.67714 36.0487 3.13527 36.1247C4.83398 36.4062 4.46891 36.1498 4.73053 37.6488C4.8051 38.076 4.92271 38.4718 4.98646 38.9525C5.10271 39.8288 5.221 40.8408 6.21746 40.8408Z" fill="#E55645"/>
</svg>
