<svg width="43" height="42" viewBox="0 0 43 42" fill="none" xmlns="http://www.w3.org/2000/svg">
<path fill-rule="evenodd" clip-rule="evenodd" d="M8.90859 26.7099C8.8672 30.0649 6.8446 35.9849 7.1812 38.7807C7.87907 44.5771 16.1964 38.2237 20.3059 36.2726C24.228 34.4105 37.7141 48.9359 35.404 35.2689C34.0183 27.0705 33.132 27.4391 35.8496 24.8741C37.0549 23.7364 42.1818 18.9907 42.6699 18.0193C43.6398 16.0895 42.3078 14.5232 40.809 14.0188C38.7485 13.3254 31.8307 12.6303 29.2141 12.3071C28.2037 10.111 27.1372 8.16949 26.0241 6.00463C25.047 4.10431 24.212 0.830754 21.5004 0.808709C18.7856 0.786665 17.9105 3.9293 16.9087 5.93886C15.9717 7.81803 14.7377 10.6574 13.7241 12.2377C11.1849 12.8 7.92163 13.1492 5.38877 13.4759C2.89576 13.7975 -0.344231 13.9239 0.0296252 17.141C0.212639 18.716 3.02677 20.9107 4.21987 22.0934C5.86663 23.7259 7.3581 25.083 8.90859 26.7099Z" fill="#E55645"/>
</svg>
