<svg width="14" height="20" viewBox="0 0 14 20" fill="none" xmlns="http://www.w3.org/2000/svg">
<path d="M6.99997 20C5.73691 18.8032 4.56616 17.4911 3.49998 16.0775C1.89999 13.9546 8.83658e-07 10.793 8.83658e-07 7.7803C-0.00141727 4.63378 1.70424 1.79641 4.32105 0.592222C6.93786 -0.611966 9.95002 0.0543808 11.9519 2.28032C13.2684 3.73625 14.0058 5.71671 14 7.7803C14 10.793 12.0999 13.9546 10.4999 16.0775C9.43377 17.4911 8.26303 18.8032 6.99997 20ZM6.99997 4.44765C5.92817 4.44765 4.9378 5.08285 4.4019 6.11398C3.86601 7.1451 3.86601 8.4155 4.4019 9.44662C4.9378 10.4777 5.92817 11.1129 6.99997 11.1129C8.65681 11.1129 9.99995 9.62087 9.99995 7.7803C9.99995 5.93973 8.65681 4.44765 6.99997 4.44765Z" fill="#ED5338"/>
</svg>
