<svg width="14" height="18" viewBox="0 0 14 18" fill="none" xmlns="http://www.w3.org/2000/svg">
<path d="M7 18.0018C5.73693 16.9244 4.56619 15.7433 3.5 14.4708C1.9 12.5598 8.83662e-07 9.71376 8.83662e-07 7.00176C-0.00141728 4.16931 1.70425 1.61515 4.32107 0.531157C6.93789 -0.552836 9.95007 0.0469997 11.952 2.05076C13.2685 3.36137 14.0059 5.14415 14 7.00176C14 9.71376 12.1 12.5598 10.5 14.4708C9.43382 15.7433 8.26307 16.9244 7 18.0018ZM7 4.00176C5.92821 4.00176 4.93782 4.57356 4.40193 5.50176C3.86603 6.42996 3.86603 7.57356 4.40193 8.50176C4.93782 9.42996 5.92821 10.0018 7 10.0018C8.65686 10.0018 10 8.65861 10 7.00176C10 5.3449 8.65686 4.00176 7 4.00176Z" fill="#E55645"/>
</svg>
