<svg width="18" height="21" viewBox="0 0 18 21" fill="none" xmlns="http://www.w3.org/2000/svg">
<path d="M13.7002 4.76383C13.0271 4.00742 12.6225 3.02112 12.6225 1.94287H11.7791M13.7002 4.76383C14.3136 5.45344 15.1442 5.95496 16.0899 6.15134C16.3838 6.21404 16.6905 6.24751 17.01 6.24751V9.34006C15.3743 9.34006 13.8577 8.82608 12.6223 7.95677V14.2465C12.6223 17.3893 10.0153 19.9429 6.81621 19.9429C5.14206 19.9429 3.62981 19.2407 2.56911 18.1249C1.60213 17.1052 1.01001 15.7427 1.01001 14.2465C1.01001 11.1497 3.54037 8.62545 6.67562 8.55858M13.7002 4.76383C13.6839 4.75335 13.6675 4.74278 13.6513 4.7321M4.66929 15.7594C4.35406 15.3332 4.16663 14.8108 4.16663 14.2424C4.16663 12.8089 5.35512 11.6429 6.81629 11.6429C7.08891 11.6429 7.35299 11.6888 7.60006 11.764V8.6046C7.34446 8.57113 7.08464 8.55021 6.81629 8.55021C6.7694 8.55021 6.39195 8.57483 6.34509 8.57483M11.7746 1.94287H9.4658L9.46158 14.3426C9.41044 15.7302 8.24321 16.8461 6.81621 16.8461C5.93014 16.8461 5.15058 16.4156 4.66496 15.7636" stroke="white" stroke-width="2" stroke-linejoin="round"/>
</svg>
