<svg width="1592" height="576" viewBox="0 0 1592 576" fill="none" xmlns="http://www.w3.org/2000/svg">
<path d="M1249.4 255.047C1240.65 333.175 1223.98 382.996 1202.35 439.063C1202.35 439.063 1389.55 549.461 1418.63 691.688C1441.63 804.68 1308.51 892.073 1078.11 794.984C836.996 693.512 676.747 518.71 635.366 320.302C501.943 328.327 457.277 372.26 457.277 372.26C457.277 372.26 566.784 763.648 1020.24 969.475C1462.4 1170.17 1928.13 733.797 1249.4 255.047ZM885.157 -227.701C1056.47 -261.324 1155.8 344.388 852.738 603.551C852.738 603.551 912.732 677.612 999.357 714.257C999.357 714.257 1257.75 475.094 1218.23 27.091C1178.69 -420.963 894.391 -425.811 776.859 -373.536C659.18 -321.302 487.404 -160.59 446.224 115.843C516.02 90.9946 549.365 85.4086 644.323 79.167C644.323 79.167 699.31 -191.179 885.157 -227.701ZM194.455 730.773C72.5574 515.102 462.858 148.102 982.836 330.612C982.836 330.612 1010.4 258.807 1016.19 153.995C1016.19 153.995 518.895 9.94424 188.72 283.196C-34.0799 467.53 -63.469 751.671 121.184 918.286C271.123 1053.84 535.872 1045.67 787.129 882.224C730.052 840.008 697.029 813.637 648.131 758.805C648.131 758.805 316.25 946.753 194.455 730.773Z" fill="#E55645"/>
</svg>
