<svg width="20" height="18" viewBox="0 0 20 18" fill="none" xmlns="http://www.w3.org/2000/svg">
<path d="M10 18C4.58 18 0 16.1685 0 14.0004V3.9996C0 1.8315 4.58 0 10 0C15.42 0 20 1.8315 20 3.9996V14.0004C20 16.1685 15.4212 18 10 18ZM2.5 11.61V14.0031C2.5875 14.5008 5.38625 16.0029 10 16.0029C14.6138 16.0029 17.4137 14.4963 17.5 13.9977V11.61C15.2243 12.5598 12.6299 13.0415 10 13.0023C7.37008 13.0415 4.77572 12.5599 2.5 11.61ZM2.5 6.6069V9C2.5875 9.4977 5.38625 10.9998 10 10.9998C14.6138 10.9998 17.4137 9.4932 17.5 8.9946V6.6069C15.2244 7.5571 12.63 8.03903 10 8.0001C7.36996 8.03908 4.77557 7.55715 2.5 6.6069ZM10 1.9998C5.385 1.9998 2.58625 3.5064 2.5 4.0059C2.5875 4.5 5.38875 5.9994 10 5.9994C14.6112 5.9994 17.4137 4.4928 17.5 3.9942C17.4125 3.4983 14.6112 1.9998 10 1.9998Z" fill="#E55645"/>
</svg>
