<svg width="141" height="125" viewBox="0 0 141 125" fill="none" xmlns="http://www.w3.org/2000/svg">
<path d="M110.657 57.4918C109.881 64.3911 108.405 68.7906 106.489 73.7417C106.489 73.7417 123.069 83.4906 125.645 96.0502C127.682 106.028 115.891 113.746 95.4855 105.172C74.1309 96.2113 59.938 80.775 56.273 63.2543C44.456 63.963 40.5001 67.8425 40.5001 67.8425C40.5001 67.8425 50.1988 102.405 90.3609 120.581C129.522 138.304 170.771 99.7687 110.657 57.4918ZM78.3964 14.8619C93.5688 11.8928 102.367 65.3812 75.5252 88.2671C75.5252 88.2671 80.8387 94.8071 88.5109 98.0431C88.5109 98.0431 111.396 76.9235 107.896 37.3618C104.394 -2.20442 79.2143 -2.63253 68.8047 1.98374C58.3821 6.59635 43.1684 20.7883 39.5211 45.1992C45.7028 43.0049 48.6561 42.5116 57.0663 41.9604C57.0663 41.9604 61.9364 18.0871 78.3964 14.8619ZM17.2224 99.5016C6.42625 80.4564 40.9943 48.0479 87.0476 64.1648C87.0476 64.1648 89.4885 57.8239 90.0014 48.5683C90.0014 48.5683 45.9574 35.8476 16.7146 59.9776C-3.01838 76.2555 -5.62131 101.347 10.733 116.06C24.0128 128.031 47.461 127.309 69.7143 112.876C64.6591 109.148 61.7344 106.819 57.4035 101.977C57.4035 101.977 28.0096 118.574 17.2224 99.5016Z" fill="#E55645"/>
</svg>
