<svg width="324" height="288" viewBox="0 0 324 288" fill="none" xmlns="http://www.w3.org/2000/svg">
<path d="M254.276 132.461C252.493 148.357 249.101 158.493 244.698 169.901C244.698 169.901 282.797 192.362 288.717 221.3C293.396 244.289 266.304 262.07 219.414 242.316C170.343 221.671 137.73 186.106 129.308 145.738C102.154 147.371 93.064 156.309 93.064 156.309C93.064 156.309 115.35 235.94 207.638 277.818C297.624 318.651 392.409 229.867 254.276 132.461ZM180.145 34.2419C215.009 27.401 235.226 150.638 173.547 203.367C173.547 203.367 185.757 218.436 203.387 225.891C203.387 225.891 255.975 177.232 247.931 86.0816C239.883 -5.07898 182.024 -6.06535 158.104 4.57054C134.155 15.198 99.1954 47.8961 90.8144 104.139C105.019 99.0833 111.805 97.9468 131.131 96.6769C131.131 96.6769 142.322 41.6726 180.145 34.2419ZM39.5749 229.252C14.7667 185.372 94.1997 110.702 200.024 147.836C200.024 147.836 205.633 133.226 206.812 111.901C206.812 111.901 105.604 82.5929 38.4079 138.188C-6.93585 175.693 -12.9171 233.504 24.6631 267.403C55.1783 294.983 109.059 293.32 160.195 260.066C148.578 251.477 141.858 246.111 131.906 234.955C131.906 234.955 64.3625 273.195 39.5749 229.252Z" fill="#E0E0E0"/>
</svg>
